<?xml version="1.0" encoding="UTF-8" standalone="no"?>
<!DOCTYPE svg PUBLIC "-//W3C//DTD SVG 1.1//EN"
 "http://www.w3.org/Graphics/SVG/1.1/DTD/svg11.dtd">
<!-- Generated by graphviz version 2.26.3 (20100126.1600)
 -->
<!-- Title: controllers_diagram Pages: 1 -->
<svg width="842pt" height="968pt"
 viewBox="0.00 0.00 842.00 968.00" xmlns="http://www.w3.org/2000/svg" xmlns:xlink="http://www.w3.org/1999/xlink">
<g id="graph1" class="graph" transform="scale(1 1) rotate(0) translate(4 964)">
<title>controllers_diagram</title>
<polygon fill="white" stroke="white" points="-4,5 -4,-964 839,-964 839,5 -4,5"/>
<!-- _diagram_info -->
<g id="node1" class="node"><title>_diagram_info</title>
<text text-anchor="start" x="9" y="-942.3" font-family="Times Roman,serif" font-size="13.00">Controllers diagram</text>
<text text-anchor="start" x="9" y="-925.3" font-family="Times Roman,serif" font-size="13.00">Date: Aug 14 2011 &#45; 00:32</text>
<text text-anchor="start" x="9" y="-908.3" font-family="Times Roman,serif" font-size="13.00">Migration version: 20110520220100</text>
<text text-anchor="start" x="9" y="-891.3" font-family="Times Roman,serif" font-size="13.00">Generated by RailRoady 1.0.2</text>
<text text-anchor="start" x="9" y="-874.3" font-family="Times Roman,serif" font-size="13.00">http://railroady.prestonlee.com</text>
</g>
<!-- EmployeesController -->
<g id="node2" class="node"><title>EmployeesController</title>
<polyline fill="none" stroke="black" points="607,-271.5 821,-271.5 "/>
<path fill="none" stroke="black" d="M821,-271.5C827,-271.5 833,-277.5 833,-283.5"/>
<polyline fill="none" stroke="black" points="833,-283.5 833,-541.5 "/>
<path fill="none" stroke="black" d="M833,-541.5C833,-547.5 827,-553.5 821,-553.5"/>
<polyline fill="none" stroke="black" points="821,-553.5 607,-553.5 "/>
<path fill="none" stroke="black" d="M607,-553.5C601,-553.5 595,-547.5 595,-541.5"/>
<polyline fill="none" stroke="black" points="595,-541.5 595,-283.5 "/>
<path fill="none" stroke="black" d="M595,-283.5C595,-277.5 601,-271.5 607,-271.5"/>
<text text-anchor="middle" x="714" y="-536.9" font-family="Times Roman,serif" font-size="14.00">EmployeesController</text>
<polyline fill="none" stroke="black" points="595,-527.5 833,-527.5 "/>
<text text-anchor="start" x="603" y="-510.9" font-family="Times Roman,serif" font-size="14.00">_one_time_conditions_valid_14?</text>
<text text-anchor="start" x="603" y="-492.9" font-family="Times Roman,serif" font-size="14.00">create</text>
<text text-anchor="start" x="603" y="-474.9" font-family="Times Roman,serif" font-size="14.00">delete</text>
<text text-anchor="start" x="603" y="-456.9" font-family="Times Roman,serif" font-size="14.00">destroy</text>
<text text-anchor="start" x="603" y="-438.9" font-family="Times Roman,serif" font-size="14.00">edit</text>
<text text-anchor="start" x="603" y="-420.9" font-family="Times Roman,serif" font-size="14.00">index</text>
<text text-anchor="start" x="603" y="-402.9" font-family="Times Roman,serif" font-size="14.00">list</text>
<text text-anchor="start" x="603" y="-384.9" font-family="Times Roman,serif" font-size="14.00">new</text>
<text text-anchor="start" x="603" y="-366.9" font-family="Times Roman,serif" font-size="14.00">show</text>
<text text-anchor="start" x="603" y="-348.9" font-family="Times Roman,serif" font-size="14.00">update</text>
<polyline fill="none" stroke="black" points="595,-339.5 833,-339.5 "/>
<polyline fill="none" stroke="black" points="595,-315.5 833,-315.5 "/>
<text text-anchor="start" x="603" y="-298.9" font-family="Times Roman,serif" font-size="14.00">_layout</text>
<text text-anchor="start" x="603" y="-280.9" font-family="Times Roman,serif" font-size="14.00">_run_process_action_callbacks</text>
</g>
<!-- AccessController -->
<g id="node3" class="node"><title>AccessController</title>
<polyline fill="none" stroke="black" points="607,-1.5 821,-1.5 "/>
<path fill="none" stroke="black" d="M821,-1.5C827,-1.5 833,-7.5 833,-13.5"/>
<polyline fill="none" stroke="black" points="833,-13.5 833,-199.5 "/>
<path fill="none" stroke="black" d="M833,-199.5C833,-205.5 827,-211.5 821,-211.5"/>
<polyline fill="none" stroke="black" points="821,-211.5 607,-211.5 "/>
<path fill="none" stroke="black" d="M607,-211.5C601,-211.5 595,-205.5 595,-199.5"/>
<polyline fill="none" stroke="black" points="595,-199.5 595,-13.5 "/>
<path fill="none" stroke="black" d="M595,-13.5C595,-7.5 601,-1.5 607,-1.5"/>
<text text-anchor="middle" x="714" y="-194.9" font-family="Times Roman,serif" font-size="14.00">AccessController</text>
<polyline fill="none" stroke="black" points="595,-185.5 833,-185.5 "/>
<text text-anchor="start" x="603" y="-168.9" font-family="Times Roman,serif" font-size="14.00">_one_time_conditions_valid_16?</text>
<text text-anchor="start" x="603" y="-150.9" font-family="Times Roman,serif" font-size="14.00">attempt_login</text>
<text text-anchor="start" x="603" y="-132.9" font-family="Times Roman,serif" font-size="14.00">index</text>
<text text-anchor="start" x="603" y="-114.9" font-family="Times Roman,serif" font-size="14.00">login</text>
<text text-anchor="start" x="603" y="-96.9" font-family="Times Roman,serif" font-size="14.00">logout</text>
<text text-anchor="start" x="603" y="-78.9" font-family="Times Roman,serif" font-size="14.00">menu</text>
<polyline fill="none" stroke="black" points="595,-69.5 833,-69.5 "/>
<polyline fill="none" stroke="black" points="595,-45.5 833,-45.5 "/>
<text text-anchor="start" x="603" y="-28.9" font-family="Times Roman,serif" font-size="14.00">_layout</text>
<text text-anchor="start" x="603" y="-10.9" font-family="Times Roman,serif" font-size="14.00">_run_process_action_callbacks</text>
</g>
<!-- ApplicationController -->
<g id="node4" class="node"><title>ApplicationController</title>
<polyline fill="none" stroke="black" points="67,-55.5 281,-55.5 "/>
<path fill="none" stroke="black" d="M281,-55.5C287,-55.5 293,-61.5 293,-67.5"/>
<polyline fill="none" stroke="black" points="293,-67.5 293,-165.5 "/>
<path fill="none" stroke="black" d="M293,-165.5C293,-171.5 287,-177.5 281,-177.5"/>
<polyline fill="none" stroke="black" points="281,-177.5 67,-177.5 "/>
<path fill="none" stroke="black" d="M67,-177.5C61,-177.5 55,-171.5 55,-165.5"/>
<polyline fill="none" stroke="black" points="55,-165.5 55,-67.5 "/>
<path fill="none" stroke="black" d="M55,-67.5C55,-61.5 61,-55.5 67,-55.5"/>
<text text-anchor="middle" x="174" y="-160.9" font-family="Times Roman,serif" font-size="14.00">ApplicationController</text>
<polyline fill="none" stroke="black" points="55,-151.5 293,-151.5 "/>
<text text-anchor="start" x="63" y="-134.9" font-family="Times Roman,serif" font-size="14.00">_one_time_conditions_valid_12?</text>
<polyline fill="none" stroke="black" points="55,-125.5 293,-125.5 "/>
<text text-anchor="start" x="63" y="-108.9" font-family="Times Roman,serif" font-size="14.00">confirm_logged_in</text>
<polyline fill="none" stroke="black" points="55,-99.5 293,-99.5 "/>
<text text-anchor="start" x="63" y="-82.9" font-family="Times Roman,serif" font-size="14.00">_layout</text>
<text text-anchor="start" x="63" y="-64.9" font-family="Times Roman,serif" font-size="14.00">_run_process_action_callbacks</text>
</g>
<!-- PublicController -->
<g id="node5" class="node"><title>PublicController</title>
<polyline fill="none" stroke="black" points="121,-244.5 223,-244.5 "/>
<path fill="none" stroke="black" d="M223,-244.5C229,-244.5 235,-250.5 235,-256.5"/>
<polyline fill="none" stroke="black" points="235,-256.5 235,-370.5 "/>
<path fill="none" stroke="black" d="M235,-370.5C235,-376.5 229,-382.5 223,-382.5"/>
<polyline fill="none" stroke="black" points="223,-382.5 121,-382.5 "/>
<path fill="none" stroke="black" d="M121,-382.5C115,-382.5 109,-376.5 109,-370.5"/>
<polyline fill="none" stroke="black" points="109,-370.5 109,-256.5 "/>
<path fill="none" stroke="black" d="M109,-256.5C109,-250.5 115,-244.5 121,-244.5"/>
<text text-anchor="middle" x="172" y="-365.9" font-family="Times Roman,serif" font-size="14.00">PublicController</text>
<polyline fill="none" stroke="black" points="109,-356.5 235,-356.5 "/>
<text text-anchor="start" x="117" y="-339.9" font-family="Times Roman,serif" font-size="14.00">catshow</text>
<text text-anchor="start" x="117" y="-321.9" font-family="Times Roman,serif" font-size="14.00">index</text>
<text text-anchor="start" x="117" y="-303.9" font-family="Times Roman,serif" font-size="14.00">show</text>
<polyline fill="none" stroke="black" points="109,-294.5 235,-294.5 "/>
<polyline fill="none" stroke="black" points="109,-270.5 235,-270.5 "/>
<text text-anchor="start" x="117" y="-253.9" font-family="Times Roman,serif" font-size="14.00">_layout</text>
</g>
<!-- ProductsController -->
<g id="node6" class="node"><title>ProductsController</title>
<polyline fill="none" stroke="black" points="310,-217.5 524,-217.5 "/>
<path fill="none" stroke="black" d="M524,-217.5C530,-217.5 536,-223.5 536,-229.5"/>
<polyline fill="none" stroke="black" points="536,-229.5 536,-613.5 "/>
<path fill="none" stroke="black" d="M536,-613.5C536,-619.5 530,-625.5 524,-625.5"/>
<polyline fill="none" stroke="black" points="524,-625.5 310,-625.5 "/>
<path fill="none" stroke="black" d="M310,-625.5C304,-625.5 298,-619.5 298,-613.5"/>
<polyline fill="none" stroke="black" points="298,-613.5 298,-229.5 "/>
<path fill="none" stroke="black" d="M298,-229.5C298,-223.5 304,-217.5 310,-217.5"/>
<text text-anchor="middle" x="417" y="-608.9" font-family="Times Roman,serif" font-size="14.00">ProductsController</text>
<polyline fill="none" stroke="black" points="298,-599.5 536,-599.5 "/>
<text text-anchor="start" x="306" y="-582.9" font-family="Times Roman,serif" font-size="14.00">_one_time_conditions_valid_20?</text>
<text text-anchor="start" x="306" y="-564.9" font-family="Times Roman,serif" font-size="14.00">_one_time_conditions_valid_22?</text>
<text text-anchor="start" x="306" y="-546.9" font-family="Times Roman,serif" font-size="14.00">assign</text>
<text text-anchor="start" x="306" y="-528.9" font-family="Times Roman,serif" font-size="14.00">checkin</text>
<text text-anchor="start" x="306" y="-510.9" font-family="Times Roman,serif" font-size="14.00">checkout</text>
<text text-anchor="start" x="306" y="-492.9" font-family="Times Roman,serif" font-size="14.00">create</text>
<text text-anchor="start" x="306" y="-474.9" font-family="Times Roman,serif" font-size="14.00">deassign</text>
<text text-anchor="start" x="306" y="-456.9" font-family="Times Roman,serif" font-size="14.00">delete</text>
<text text-anchor="start" x="306" y="-438.9" font-family="Times Roman,serif" font-size="14.00">destroy</text>
<text text-anchor="start" x="306" y="-420.9" font-family="Times Roman,serif" font-size="14.00">edit</text>
<text text-anchor="start" x="306" y="-402.9" font-family="Times Roman,serif" font-size="14.00">generate_report</text>
<text text-anchor="start" x="306" y="-384.9" font-family="Times Roman,serif" font-size="14.00">index</text>
<text text-anchor="start" x="306" y="-366.9" font-family="Times Roman,serif" font-size="14.00">list</text>
<text text-anchor="start" x="306" y="-348.9" font-family="Times Roman,serif" font-size="14.00">new</text>
<text text-anchor="start" x="306" y="-330.9" font-family="Times Roman,serif" font-size="14.00">show</text>
<text text-anchor="start" x="306" y="-312.9" font-family="Times Roman,serif" font-size="14.00">update</text>
<polyline fill="none" stroke="black" points="298,-303.5 536,-303.5 "/>
<polyline fill="none" stroke="black" points="298,-279.5 536,-279.5 "/>
<text text-anchor="start" x="306" y="-262.9" font-family="Times Roman,serif" font-size="14.00">_layout</text>
<text text-anchor="start" x="306" y="-244.9" font-family="Times Roman,serif" font-size="14.00">_run_process_action_callbacks</text>
<text text-anchor="start" x="306" y="-226.9" font-family="Times Roman,serif" font-size="14.00">find_category</text>
</g>
<!-- AdminUsersController -->
<g id="node7" class="node"><title>AdminUsersController</title>
<polyline fill="none" stroke="black" points="13,-433.5 227,-433.5 "/>
<path fill="none" stroke="black" d="M227,-433.5C233,-433.5 239,-439.5 239,-445.5"/>
<polyline fill="none" stroke="black" points="239,-445.5 239,-685.5 "/>
<path fill="none" stroke="black" d="M239,-685.5C239,-691.5 233,-697.5 227,-697.5"/>
<polyline fill="none" stroke="black" points="227,-697.5 13,-697.5 "/>
<path fill="none" stroke="black" d="M13,-697.5C7,-697.5 1,-691.5 1,-685.5"/>
<polyline fill="none" stroke="black" points="1,-685.5 1,-445.5 "/>
<path fill="none" stroke="black" d="M1,-445.5C1,-439.5 7,-433.5 13,-433.5"/>
<text text-anchor="middle" x="120" y="-680.9" font-family="Times Roman,serif" font-size="14.00">AdminUsersController</text>
<polyline fill="none" stroke="black" points="1,-671.5 239,-671.5 "/>
<text text-anchor="start" x="9" y="-654.9" font-family="Times Roman,serif" font-size="14.00">_one_time_conditions_valid_24?</text>
<text text-anchor="start" x="9" y="-636.9" font-family="Times Roman,serif" font-size="14.00">create</text>
<text text-anchor="start" x="9" y="-618.9" font-family="Times Roman,serif" font-size="14.00">delete</text>
<text text-anchor="start" x="9" y="-600.9" font-family="Times Roman,serif" font-size="14.00">destroy</text>
<text text-anchor="start" x="9" y="-582.9" font-family="Times Roman,serif" font-size="14.00">edit</text>
<text text-anchor="start" x="9" y="-564.9" font-family="Times Roman,serif" font-size="14.00">index</text>
<text text-anchor="start" x="9" y="-546.9" font-family="Times Roman,serif" font-size="14.00">list</text>
<text text-anchor="start" x="9" y="-528.9" font-family="Times Roman,serif" font-size="14.00">new</text>
<text text-anchor="start" x="9" y="-510.9" font-family="Times Roman,serif" font-size="14.00">update</text>
<polyline fill="none" stroke="black" points="1,-501.5 239,-501.5 "/>
<polyline fill="none" stroke="black" points="1,-477.5 239,-477.5 "/>
<text text-anchor="start" x="9" y="-460.9" font-family="Times Roman,serif" font-size="14.00">_layout</text>
<text text-anchor="start" x="9" y="-442.9" font-family="Times Roman,serif" font-size="14.00">_run_process_action_callbacks</text>
</g>
<!-- CategoriesController -->
<g id="node8" class="node"><title>CategoriesController</title>
<polyline fill="none" stroke="black" points="607,-595.5 821,-595.5 "/>
<path fill="none" stroke="black" d="M821,-595.5C827,-595.5 833,-601.5 833,-607.5"/>
<polyline fill="none" stroke="black" points="833,-607.5 833,-883.5 "/>
<path fill="none" stroke="black" d="M833,-883.5C833,-889.5 827,-895.5 821,-895.5"/>
<polyline fill="none" stroke="black" points="821,-895.5 607,-895.5 "/>
<path fill="none" stroke="black" d="M607,-895.5C601,-895.5 595,-889.5 595,-883.5"/>
<polyline fill="none" stroke="black" points="595,-883.5 595,-607.5 "/>
<path fill="none" stroke="black" d="M595,-607.5C595,-601.5 601,-595.5 607,-595.5"/>
<text text-anchor="middle" x="714" y="-878.9" font-family="Times Roman,serif" font-size="14.00">CategoriesController</text>
<polyline fill="none" stroke="black" points="595,-869.5 833,-869.5 "/>
<text text-anchor="start" x="603" y="-852.9" font-family="Times Roman,serif" font-size="14.00">_one_time_conditions_valid_26?</text>
<text text-anchor="start" x="603" y="-834.9" font-family="Times Roman,serif" font-size="14.00">create</text>
<text text-anchor="start" x="603" y="-816.9" font-family="Times Roman,serif" font-size="14.00">delete</text>
<text text-anchor="start" x="603" y="-798.9" font-family="Times Roman,serif" font-size="14.00">destroy</text>
<text text-anchor="start" x="603" y="-780.9" font-family="Times Roman,serif" font-size="14.00">dial</text>
<text text-anchor="start" x="603" y="-762.9" font-family="Times Roman,serif" font-size="14.00">edit</text>
<text text-anchor="start" x="603" y="-744.9" font-family="Times Roman,serif" font-size="14.00">index</text>
<text text-anchor="start" x="603" y="-726.9" font-family="Times Roman,serif" font-size="14.00">list</text>
<text text-anchor="start" x="603" y="-708.9" font-family="Times Roman,serif" font-size="14.00">new</text>
<text text-anchor="start" x="603" y="-690.9" font-family="Times Roman,serif" font-size="14.00">show</text>
<text text-anchor="start" x="603" y="-672.9" font-family="Times Roman,serif" font-size="14.00">update</text>
<polyline fill="none" stroke="black" points="595,-663.5 833,-663.5 "/>
<polyline fill="none" stroke="black" points="595,-639.5 833,-639.5 "/>
<text text-anchor="start" x="603" y="-622.9" font-family="Times Roman,serif" font-size="14.00">_layout</text>
<text text-anchor="start" x="603" y="-604.9" font-family="Times Roman,serif" font-size="14.00">_run_process_action_callbacks</text>
</g>
<!-- SuppliersController -->
<g id="node9" class="node"><title>SuppliersController</title>
<polyline fill="none" stroke="black" points="310,-676.5 524,-676.5 "/>
<path fill="none" stroke="black" d="M524,-676.5C530,-676.5 536,-682.5 536,-688.5"/>
<polyline fill="none" stroke="black" points="536,-688.5 536,-946.5 "/>
<path fill="none" stroke="black" d="M536,-946.5C536,-952.5 530,-958.5 524,-958.5"/>
<polyline fill="none" stroke="black" points="524,-958.5 310,-958.5 "/>
<path fill="none" stroke="black" d="M310,-958.5C304,-958.5 298,-952.5 298,-946.5"/>
<polyline fill="none" stroke="black" points="298,-946.5 298,-688.5 "/>
<path fill="none" stroke="black" d="M298,-688.5C298,-682.5 304,-676.5 310,-676.5"/>
<text text-anchor="middle" x="417" y="-941.9" font-family="Times Roman,serif" font-size="14.00">SuppliersController</text>
<polyline fill="none" stroke="black" points="298,-932.5 536,-932.5 "/>
<text text-anchor="start" x="306" y="-915.9" font-family="Times Roman,serif" font-size="14.00">_one_time_conditions_valid_28?</text>
<text text-anchor="start" x="306" y="-897.9" font-family="Times Roman,serif" font-size="14.00">create</text>
<text text-anchor="start" x="306" y="-879.9" font-family="Times Roman,serif" font-size="14.00">delete</text>
<text text-anchor="start" x="306" y="-861.9" font-family="Times Roman,serif" font-size="14.00">destroy</text>
<text text-anchor="start" x="306" y="-843.9" font-family="Times Roman,serif" font-size="14.00">edit</text>
<text text-anchor="start" x="306" y="-825.9" font-family="Times Roman,serif" font-size="14.00">index</text>
<text text-anchor="start" x="306" y="-807.9" font-family="Times Roman,serif" font-size="14.00">list</text>
<text text-anchor="start" x="306" y="-789.9" font-family="Times Roman,serif" font-size="14.00">new</text>
<text text-anchor="start" x="306" y="-771.9" font-family="Times Roman,serif" font-size="14.00">show</text>
<text text-anchor="start" x="306" y="-753.9" font-family="Times Roman,serif" font-size="14.00">update</text>
<polyline fill="none" stroke="black" points="298,-744.5 536,-744.5 "/>
<polyline fill="none" stroke="black" points="298,-720.5 536,-720.5 "/>
<text text-anchor="start" x="306" y="-703.9" font-family="Times Roman,serif" font-size="14.00">_layout</text>
<text text-anchor="start" x="306" y="-685.9" font-family="Times Roman,serif" font-size="14.00">_run_process_action_callbacks</text>
</g>
</g>
</svg>
