<?xml version="1.0" encoding="UTF-8" standalone="no"?>
<!DOCTYPE svg PUBLIC "-//W3C//DTD SVG 1.1//EN"
 "http://www.w3.org/Graphics/SVG/1.1/DTD/svg11.dtd">
<!-- Generated by graphviz version 2.26.3 (20100126.1600)
 -->
<!-- Title: models_diagram Pages: 1 -->
<svg width="948pt" height="964pt"
 viewBox="0.00 0.00 948.00 964.00" xmlns="http://www.w3.org/2000/svg" xmlns:xlink="http://www.w3.org/1999/xlink">
<g id="graph1" class="graph" transform="scale(1 1) rotate(0) translate(4 960)">
<title>models_diagram</title>
<polygon fill="white" stroke="white" points="-4,5 -4,-960 945,-960 945,5 -4,5"/>
<!-- _diagram_info -->
<g id="node1" class="node"><title>_diagram_info</title>
<text text-anchor="start" x="8" y="-815.8" font-family="Times Roman,serif" font-size="13.00">Models diagram</text>
<text text-anchor="start" x="8" y="-798.8" font-family="Times Roman,serif" font-size="13.00">Date: Aug 14 2011 &#45; 00:32</text>
<text text-anchor="start" x="8" y="-781.8" font-family="Times Roman,serif" font-size="13.00">Migration version: 20110520220100</text>
<text text-anchor="start" x="8" y="-764.8" font-family="Times Roman,serif" font-size="13.00">Generated by RailRoady 1.0.2</text>
<text text-anchor="start" x="8" y="-747.8" font-family="Times Roman,serif" font-size="13.00">http://railroady.prestonlee.com</text>
</g>
<!-- Employee -->
<g id="node2" class="node"><title>Employee</title>
<polyline fill="none" stroke="black" points="280,-615 468,-615 "/>
<path fill="none" stroke="black" d="M468,-615C474,-615 480,-621 480,-627"/>
<polyline fill="none" stroke="black" points="480,-627 480,-943 "/>
<path fill="none" stroke="black" d="M480,-943C480,-949 474,-955 468,-955"/>
<polyline fill="none" stroke="black" points="468,-955 280,-955 "/>
<path fill="none" stroke="black" d="M280,-955C274,-955 268,-949 268,-943"/>
<polyline fill="none" stroke="black" points="268,-943 268,-627 "/>
<path fill="none" stroke="black" d="M268,-627C268,-621 274,-615 280,-615"/>
<text text-anchor="middle" x="374" y="-938.4" font-family="Times Roman,serif" font-size="14.00">Employee</text>
<polyline fill="none" stroke="black" points="268,-929 480,-929 "/>
<text text-anchor="start" x="276" y="-912.4" font-family="Times Roman,serif" font-size="14.00">first_name :string</text>
<text text-anchor="start" x="276" y="-894.4" font-family="Times Roman,serif" font-size="14.00">last_name :string</text>
<text text-anchor="start" x="276" y="-876.4" font-family="Times Roman,serif" font-size="14.00">uni_nr :string</text>
<text text-anchor="start" x="276" y="-858.4" font-family="Times Roman,serif" font-size="14.00">date_employed :integer</text>
<text text-anchor="start" x="276" y="-840.4" font-family="Times Roman,serif" font-size="14.00">profession :string</text>
<text text-anchor="start" x="276" y="-822.4" font-family="Times Roman,serif" font-size="14.00">departament :string</text>
<text text-anchor="start" x="276" y="-804.4" font-family="Times Roman,serif" font-size="14.00">office :string</text>
<text text-anchor="start" x="276" y="-786.4" font-family="Times Roman,serif" font-size="14.00">email :string</text>
<text text-anchor="start" x="276" y="-768.4" font-family="Times Roman,serif" font-size="14.00">password :string</text>
<text text-anchor="start" x="276" y="-750.4" font-family="Times Roman,serif" font-size="14.00">phone :integer</text>
<text text-anchor="start" x="276" y="-732.4" font-family="Times Roman,serif" font-size="14.00">status :string</text>
<text text-anchor="start" x="276" y="-714.4" font-family="Times Roman,serif" font-size="14.00">created_at :datetime</text>
<text text-anchor="start" x="276" y="-696.4" font-family="Times Roman,serif" font-size="14.00">updated_at :datetime</text>
<text text-anchor="start" x="276" y="-678.4" font-family="Times Roman,serif" font-size="14.00">photo_file_name :string</text>
<text text-anchor="start" x="276" y="-660.4" font-family="Times Roman,serif" font-size="14.00">photo_content_type :string</text>
<text text-anchor="start" x="276" y="-642.4" font-family="Times Roman,serif" font-size="14.00">photo_file_size :integer</text>
<text text-anchor="start" x="276" y="-624.4" font-family="Times Roman,serif" font-size="14.00">photo_updated_at :datetime</text>
</g>
<!-- Track -->
<g id="node5" class="node"><title>Track</title>
<polyline fill="none" stroke="black" points="341.5,-19 482.5,-19 "/>
<path fill="none" stroke="black" d="M482.5,-19C488.5,-19 494.5,-25 494.5,-31"/>
<polyline fill="none" stroke="black" points="494.5,-31 494.5,-167 "/>
<path fill="none" stroke="black" d="M494.5,-167C494.5,-173 488.5,-179 482.5,-179"/>
<polyline fill="none" stroke="black" points="482.5,-179 341.5,-179 "/>
<path fill="none" stroke="black" d="M341.5,-179C335.5,-179 329.5,-173 329.5,-167"/>
<polyline fill="none" stroke="black" points="329.5,-167 329.5,-31 "/>
<path fill="none" stroke="black" d="M329.5,-31C329.5,-25 335.5,-19 341.5,-19"/>
<text text-anchor="middle" x="412" y="-162.4" font-family="Times Roman,serif" font-size="14.00">Track</text>
<polyline fill="none" stroke="black" points="329.5,-153 494.5,-153 "/>
<text text-anchor="start" x="337.5" y="-136.4" font-family="Times Roman,serif" font-size="14.00">date_out :date</text>
<text text-anchor="start" x="337.5" y="-118.4" font-family="Times Roman,serif" font-size="14.00">date_in :date</text>
<text text-anchor="start" x="337.5" y="-100.4" font-family="Times Roman,serif" font-size="14.00">status :string</text>
<text text-anchor="start" x="337.5" y="-82.4" font-family="Times Roman,serif" font-size="14.00">created_at :datetime</text>
<text text-anchor="start" x="337.5" y="-64.4" font-family="Times Roman,serif" font-size="14.00">updated_at :datetime</text>
<text text-anchor="start" x="337.5" y="-46.4" font-family="Times Roman,serif" font-size="14.00">info_in :text</text>
<text text-anchor="start" x="337.5" y="-28.4" font-family="Times Roman,serif" font-size="14.00">info_out :text</text>
</g>
<!-- Employee&#45;&gt;Track -->
<g id="edge2" class="edge"><title>Employee&#45;&gt;Track</title>
<path fill="none" stroke="black" d="M383.872,-606.78C391.293,-472.825 401.149,-294.889 407.008,-189.122"/>
<ellipse fill="none" stroke="black" cx="383.639" cy="-610.993" rx="4" ry="4"/>
<polygon fill="black" stroke="black" points="407.009,-189.101 412.055,-179.365 407.285,-184.108 407.562,-179.116 407.562,-179.116 407.562,-179.116 407.285,-184.108 403.069,-178.867 407.009,-189.101 407.009,-189.101"/>
</g>
<!-- Product -->
<g id="node7" class="node"><title>Product</title>
<polyline fill="none" stroke="black" points="510,-253 698,-253 "/>
<path fill="none" stroke="black" d="M698,-253C704,-253 710,-259 710,-265"/>
<polyline fill="none" stroke="black" points="710,-265 710,-563 "/>
<path fill="none" stroke="black" d="M710,-563C710,-569 704,-575 698,-575"/>
<polyline fill="none" stroke="black" points="698,-575 510,-575 "/>
<path fill="none" stroke="black" d="M510,-575C504,-575 498,-569 498,-563"/>
<polyline fill="none" stroke="black" points="498,-563 498,-265 "/>
<path fill="none" stroke="black" d="M498,-265C498,-259 504,-253 510,-253"/>
<text text-anchor="middle" x="604" y="-558.4" font-family="Times Roman,serif" font-size="14.00">Product</text>
<polyline fill="none" stroke="black" points="498,-549 710,-549 "/>
<text text-anchor="start" x="506" y="-532.4" font-family="Times Roman,serif" font-size="14.00">brand :string</text>
<text text-anchor="start" x="506" y="-514.4" font-family="Times Roman,serif" font-size="14.00">name :string</text>
<text text-anchor="start" x="506" y="-496.4" font-family="Times Roman,serif" font-size="14.00">modelnr :string</text>
<text text-anchor="start" x="506" y="-478.4" font-family="Times Roman,serif" font-size="14.00">serialnr :string</text>
<text text-anchor="start" x="506" y="-460.4" font-family="Times Roman,serif" font-size="14.00">price :integer</text>
<text text-anchor="start" x="506" y="-442.4" font-family="Times Roman,serif" font-size="14.00">date_purchased :datetime</text>
<text text-anchor="start" x="506" y="-424.4" font-family="Times Roman,serif" font-size="14.00">info :text</text>
<text text-anchor="start" x="506" y="-406.4" font-family="Times Roman,serif" font-size="14.00">status :string</text>
<text text-anchor="start" x="506" y="-388.4" font-family="Times Roman,serif" font-size="14.00">created_at :datetime</text>
<text text-anchor="start" x="506" y="-370.4" font-family="Times Roman,serif" font-size="14.00">updated_at :datetime</text>
<text text-anchor="start" x="506" y="-352.4" font-family="Times Roman,serif" font-size="14.00">photo_file_name :string</text>
<text text-anchor="start" x="506" y="-334.4" font-family="Times Roman,serif" font-size="14.00">photo_content_type :string</text>
<text text-anchor="start" x="506" y="-316.4" font-family="Times Roman,serif" font-size="14.00">photo_file_size :integer</text>
<text text-anchor="start" x="506" y="-298.4" font-family="Times Roman,serif" font-size="14.00">photo_updated_at :datetime</text>
<text text-anchor="start" x="506" y="-280.4" font-family="Times Roman,serif" font-size="14.00">date_in :date</text>
<text text-anchor="start" x="506" y="-262.4" font-family="Times Roman,serif" font-size="14.00">date_out :date</text>
</g>
<!-- Employee&#45;&gt;Product -->
<g id="edge4" class="edge"><title>Employee&#45;&gt;Product</title>
<path fill="none" stroke="black" d="M483.648,-608.133C488.654,-600.057 493.674,-591.961 498.669,-583.903"/>
<ellipse fill="none" stroke="black" cx="481.516" cy="-611.573" rx="4.00002" ry="4.00002"/>
<polygon fill="black" stroke="black" points="498.809,-583.677 507.903,-577.549 501.444,-579.428 504.078,-575.178 504.078,-575.178 504.078,-575.178 501.444,-579.428 500.254,-572.807 498.809,-583.677 498.809,-583.677"/>
</g>
<!-- Category -->
<g id="node3" class="node"><title>Category</title>
<polyline fill="none" stroke="black" points="510,-687 698,-687 "/>
<path fill="none" stroke="black" d="M698,-687C704,-687 710,-693 710,-699"/>
<polyline fill="none" stroke="black" points="710,-699 710,-871 "/>
<path fill="none" stroke="black" d="M710,-871C710,-877 704,-883 698,-883"/>
<polyline fill="none" stroke="black" points="698,-883 510,-883 "/>
<path fill="none" stroke="black" d="M510,-883C504,-883 498,-877 498,-871"/>
<polyline fill="none" stroke="black" points="498,-871 498,-699 "/>
<path fill="none" stroke="black" d="M498,-699C498,-693 504,-687 510,-687"/>
<text text-anchor="middle" x="604" y="-866.4" font-family="Times Roman,serif" font-size="14.00">Category</text>
<polyline fill="none" stroke="black" points="498,-857 710,-857 "/>
<text text-anchor="start" x="506" y="-840.4" font-family="Times Roman,serif" font-size="14.00">name :string</text>
<text text-anchor="start" x="506" y="-822.4" font-family="Times Roman,serif" font-size="14.00">position :integer</text>
<text text-anchor="start" x="506" y="-804.4" font-family="Times Roman,serif" font-size="14.00">visible :boolean</text>
<text text-anchor="start" x="506" y="-786.4" font-family="Times Roman,serif" font-size="14.00">created_at :datetime</text>
<text text-anchor="start" x="506" y="-768.4" font-family="Times Roman,serif" font-size="14.00">updated_at :datetime</text>
<text text-anchor="start" x="506" y="-750.4" font-family="Times Roman,serif" font-size="14.00">photo_file_name :string</text>
<text text-anchor="start" x="506" y="-732.4" font-family="Times Roman,serif" font-size="14.00">photo_content_type :string</text>
<text text-anchor="start" x="506" y="-714.4" font-family="Times Roman,serif" font-size="14.00">photo_file_size :integer</text>
<text text-anchor="start" x="506" y="-696.4" font-family="Times Roman,serif" font-size="14.00">photo_updated_at :datetime</text>
</g>
<!-- Category&#45;&gt;Product -->
<g id="edge6" class="edge"><title>Category&#45;&gt;Product</title>
<path fill="none" stroke="black" d="M604,-678.463C604,-649.442 604,-617.25 604,-585.602"/>
<ellipse fill="none" stroke="black" cx="604" cy="-682.553" rx="4" ry="4"/>
<polygon fill="black" stroke="black" points="604,-585.35 608.5,-575.35 604,-580.35 604,-575.35 604,-575.35 604,-575.35 604,-580.35 599.5,-575.35 604,-585.35 604,-585.35"/>
</g>
<!-- AdminUser -->
<g id="node4" class="node"><title>AdminUser</title>
<polyline fill="none" stroke="black" points="634,-1 798,-1 "/>
<path fill="none" stroke="black" d="M798,-1C804,-1 810,-7 810,-13"/>
<polyline fill="none" stroke="black" points="810,-13 810,-185 "/>
<path fill="none" stroke="black" d="M810,-185C810,-191 804,-197 798,-197"/>
<polyline fill="none" stroke="black" points="798,-197 634,-197 "/>
<path fill="none" stroke="black" d="M634,-197C628,-197 622,-191 622,-185"/>
<polyline fill="none" stroke="black" points="622,-185 622,-13 "/>
<path fill="none" stroke="black" d="M622,-13C622,-7 628,-1 634,-1"/>
<text text-anchor="middle" x="716" y="-180.4" font-family="Times Roman,serif" font-size="14.00">AdminUser</text>
<polyline fill="none" stroke="black" points="622,-171 810,-171 "/>
<text text-anchor="start" x="630" y="-154.4" font-family="Times Roman,serif" font-size="14.00">first_name :string</text>
<text text-anchor="start" x="630" y="-136.4" font-family="Times Roman,serif" font-size="14.00">last_name :string</text>
<text text-anchor="start" x="630" y="-118.4" font-family="Times Roman,serif" font-size="14.00">email :string</text>
<text text-anchor="start" x="630" y="-100.4" font-family="Times Roman,serif" font-size="14.00">hashed_password :string</text>
<text text-anchor="start" x="630" y="-82.4" font-family="Times Roman,serif" font-size="14.00">phone :string</text>
<text text-anchor="start" x="630" y="-64.4" font-family="Times Roman,serif" font-size="14.00">created_at :datetime</text>
<text text-anchor="start" x="630" y="-46.4" font-family="Times Roman,serif" font-size="14.00">updated_at :datetime</text>
<text text-anchor="start" x="630" y="-28.4" font-family="Times Roman,serif" font-size="14.00">username :string</text>
<text text-anchor="start" x="630" y="-10.4" font-family="Times Roman,serif" font-size="14.00">salt :string</text>
</g>
<!-- AdminUser&#45;&gt;Product -->
<g id="edge8" class="edge"><title>AdminUser&#45;&gt;Product</title>
<path fill="none" stroke="black" d="M661.842,-206.254C660.51,-209.523 659.225,-212.776 658,-216 654.641,-224.837 651.398,-233.969 648.284,-243.24"/>
<polygon fill="black" stroke="black" points="661.849,-206.238 669.864,-198.755 663.781,-201.627 665.714,-197.016 665.714,-197.016 665.714,-197.016 663.781,-201.627 661.563,-195.276 661.849,-206.238 661.849,-206.238"/>
<polygon fill="black" stroke="black" points="648.215,-243.448 640.811,-251.537 646.65,-248.197 645.085,-252.946 645.085,-252.946 645.085,-252.946 646.65,-248.197 649.359,-254.355 648.215,-243.448 648.215,-243.448"/>
</g>
<!-- Supplier -->
<g id="node6" class="node"><title>Supplier</title>
<polyline fill="none" stroke="black" points="740,-642 928,-642 "/>
<path fill="none" stroke="black" d="M928,-642C934,-642 940,-648 940,-654"/>
<polyline fill="none" stroke="black" points="940,-654 940,-916 "/>
<path fill="none" stroke="black" d="M940,-916C940,-922 934,-928 928,-928"/>
<polyline fill="none" stroke="black" points="928,-928 740,-928 "/>
<path fill="none" stroke="black" d="M740,-928C734,-928 728,-922 728,-916"/>
<polyline fill="none" stroke="black" points="728,-916 728,-654 "/>
<path fill="none" stroke="black" d="M728,-654C728,-648 734,-642 740,-642"/>
<text text-anchor="middle" x="834" y="-911.4" font-family="Times Roman,serif" font-size="14.00">Supplier</text>
<polyline fill="none" stroke="black" points="728,-902 940,-902 "/>
<text text-anchor="start" x="736" y="-885.4" font-family="Times Roman,serif" font-size="14.00">company_name :string</text>
<text text-anchor="start" x="736" y="-867.4" font-family="Times Roman,serif" font-size="14.00">business_nr :string</text>
<text text-anchor="start" x="736" y="-849.4" font-family="Times Roman,serif" font-size="14.00">fiscal_nr :string</text>
<text text-anchor="start" x="736" y="-831.4" font-family="Times Roman,serif" font-size="14.00">owner :string</text>
<text text-anchor="start" x="736" y="-813.4" font-family="Times Roman,serif" font-size="14.00">address :string</text>
<text text-anchor="start" x="736" y="-795.4" font-family="Times Roman,serif" font-size="14.00">phone :string</text>
<text text-anchor="start" x="736" y="-777.4" font-family="Times Roman,serif" font-size="14.00">status :boolean</text>
<text text-anchor="start" x="736" y="-759.4" font-family="Times Roman,serif" font-size="14.00">services :text</text>
<text text-anchor="start" x="736" y="-741.4" font-family="Times Roman,serif" font-size="14.00">created_at :datetime</text>
<text text-anchor="start" x="736" y="-723.4" font-family="Times Roman,serif" font-size="14.00">updated_at :datetime</text>
<text text-anchor="start" x="736" y="-705.4" font-family="Times Roman,serif" font-size="14.00">photo_file_name :string</text>
<text text-anchor="start" x="736" y="-687.4" font-family="Times Roman,serif" font-size="14.00">photo_content_type :string</text>
<text text-anchor="start" x="736" y="-669.4" font-family="Times Roman,serif" font-size="14.00">photo_file_size :integer</text>
<text text-anchor="start" x="736" y="-651.4" font-family="Times Roman,serif" font-size="14.00">photo_updated_at :datetime</text>
</g>
<!-- Supplier&#45;&gt;AdminUser -->
<g id="edge12" class="edge"><title>Supplier&#45;&gt;AdminUser</title>
<path fill="none" stroke="black" d="M807.638,-631.742C785.455,-502.782 754.292,-321.61 734.627,-207.287"/>
<polygon fill="black" stroke="black" points="807.64,-631.754 804.9,-642.373 808.488,-636.682 809.335,-641.61 809.335,-641.61 809.335,-641.61 808.488,-636.682 813.77,-640.847 807.64,-631.754 807.64,-631.754"/>
<polygon fill="black" stroke="black" points="734.573,-206.977 737.313,-196.359 733.726,-202.049 732.878,-197.122 732.878,-197.122 732.878,-197.122 733.726,-202.049 728.443,-197.885 734.573,-206.977 734.573,-206.977"/>
<text text-anchor="middle" x="822" y="-410.4" font-family="Times Roman,serif" font-size="14.00">editors</text>
</g>
<!-- Supplier&#45;&gt;Product -->
<g id="edge10" class="edge"><title>Supplier&#45;&gt;Product</title>
<path fill="none" stroke="black" d="M740.942,-634.894C730.558,-618.144 719.926,-600.993 709.401,-584.017"/>
<ellipse fill="none" stroke="black" cx="743.133" cy="-638.427" rx="4.00002" ry="4.00002"/>
<polygon fill="black" stroke="black" points="709.179,-583.658 707.734,-572.787 706.544,-579.408 703.91,-575.158 703.91,-575.158 703.91,-575.158 706.544,-579.408 700.085,-577.53 709.179,-583.658 709.179,-583.658"/>
</g>
<!-- Product&#45;&gt;AdminUser -->
<g id="edge18" class="edge"><title>Product&#45;&gt;AdminUser</title>
<path fill="none" stroke="black" d="M664.777,-243.065C669.116,-230.86 673.417,-218.764 677.575,-207.072"/>
<polygon fill="black" stroke="black" points="664.663,-243.387 657.072,-251.301 662.987,-248.098 661.312,-252.809 661.312,-252.809 661.312,-252.809 662.987,-248.098 665.552,-254.316 664.663,-243.387 664.663,-243.387"/>
<polygon fill="black" stroke="black" points="677.68,-206.774 685.27,-198.86 679.355,-202.063 681.03,-197.352 681.03,-197.352 681.03,-197.352 679.355,-202.063 676.79,-195.844 677.68,-206.774 677.68,-206.774"/>
<text text-anchor="middle" x="697" y="-221.4" font-family="Times Roman,serif" font-size="14.00">editors</text>
</g>
<!-- Product&#45;&gt;Track -->
<g id="edge14" class="edge"><title>Product&#45;&gt;Track</title>
<path fill="none" stroke="black" d="M501.551,-245.919C489.376,-225.946 477.341,-206.2 466.232,-187.975"/>
<ellipse fill="none" stroke="black" cx="503.668" cy="-249.393" rx="4.00002" ry="4.00002"/>
<polygon fill="black" stroke="black" points="466.062,-187.695 464.7,-176.814 463.459,-183.426 460.857,-179.156 460.857,-179.156 460.857,-179.156 463.459,-183.426 457.015,-181.498 466.062,-187.695 466.062,-187.695"/>
</g>
<!-- Cargo -->
<g id="node16" class="node"><title>Cargo</title>
<ellipse fill="none" stroke="black" cx="564" cy="-99" rx="39.8075" ry="18.3848"/>
<text text-anchor="middle" x="564" y="-95.4" font-family="Times Roman,serif" font-size="14.00">Cargo</text>
</g>
<!-- Product&#45;&gt;Cargo -->
<g id="edge16" class="edge"><title>Product&#45;&gt;Cargo</title>
<path fill="none" stroke="black" d="M582.484,-244.561C576.731,-199.256 571.146,-155.276 567.648,-127.732"/>
<ellipse fill="none" stroke="black" cx="583.027" cy="-248.841" rx="4.00001" ry="4.00001"/>
<polygon fill="black" stroke="black" points="567.63,-127.587 570.835,-117.1 567,-122.627 566.37,-117.667 566.37,-117.667 566.37,-117.667 567,-122.627 561.906,-118.234 567.63,-127.587 567.63,-127.587"/>
</g>
</g>
</svg>
