<?xml version="1.0" encoding="UTF-8" standalone="no"?>
<!DOCTYPE svg PUBLIC "-//W3C//DTD SVG 1.1//EN"
 "http://www.w3.org/Graphics/SVG/1.1/DTD/svg11.dtd">
<!-- Generated by graphviz version 2.26.3 (20100126.1600)
 -->
<!-- Title: models_diagram Pages: 1 -->
<svg width="642pt" height="270pt"
 viewBox="0.00 0.00 642.00 270.00" xmlns="http://www.w3.org/2000/svg" xmlns:xlink="http://www.w3.org/1999/xlink">
<g id="graph1" class="graph" transform="scale(1 1) rotate(0) translate(4 266)">
<title>models_diagram</title>
<polygon fill="white" stroke="white" points="-4,5 -4,-266 639,-266 639,5 -4,5"/>
<!-- _diagram_info -->
<g id="node1" class="node"><title>_diagram_info</title>
<text text-anchor="start" x="8" y="-245.8" font-family="Times Roman,serif" font-size="13.00">Models diagram</text>
<text text-anchor="start" x="8" y="-228.8" font-family="Times Roman,serif" font-size="13.00">Date: Aug 14 2011 &#45; 00:32</text>
<text text-anchor="start" x="8" y="-211.8" font-family="Times Roman,serif" font-size="13.00">Migration version: 20110520220100</text>
<text text-anchor="start" x="8" y="-194.8" font-family="Times Roman,serif" font-size="13.00">Generated by RailRoady 1.0.2</text>
<text text-anchor="start" x="8" y="-177.8" font-family="Times Roman,serif" font-size="13.00">http://railroady.prestonlee.com</text>
</g>
<!-- Employee -->
<g id="node2" class="node"><title>Employee</title>
<ellipse fill="none" stroke="black" cx="326" cy="-215" rx="58.1882" ry="18.3848"/>
<text text-anchor="middle" x="326" y="-211.4" font-family="Times Roman,serif" font-size="14.00">Employee</text>
</g>
<!-- Track -->
<g id="node5" class="node"><title>Track</title>
<ellipse fill="none" stroke="black" cx="341" cy="-19" rx="36.977" ry="18.3848"/>
<text text-anchor="middle" x="341" y="-15.4" font-family="Times Roman,serif" font-size="14.00">Track</text>
</g>
<!-- Employee&#45;&gt;Track -->
<g id="edge2" class="edge"><title>Employee&#45;&gt;Track</title>
<path fill="none" stroke="black" d="M328.054,-188.16C330.862,-151.467 335.88,-85.8954 338.775,-48.0718"/>
<ellipse fill="none" stroke="black" cx="327.744" cy="-192.218" rx="4" ry="4"/>
<polygon fill="black" stroke="black" points="338.803,-47.7072 344.053,-38.0798 339.185,-42.7218 339.566,-37.7364 339.566,-37.7364 339.566,-37.7364 339.185,-42.7218 335.079,-37.393 338.803,-47.7072 338.803,-47.7072"/>
</g>
<!-- Product -->
<g id="node7" class="node"><title>Product</title>
<ellipse fill="none" stroke="black" cx="458" cy="-111" rx="48.9975" ry="18.3848"/>
<text text-anchor="middle" x="458" y="-107.4" font-family="Times Roman,serif" font-size="14.00">Product</text>
</g>
<!-- Employee&#45;&gt;Product -->
<g id="edge4" class="edge"><title>Employee&#45;&gt;Product</title>
<path fill="none" stroke="black" d="M354.141,-192.828C376.027,-175.585 406.304,-151.73 428.522,-134.225"/>
<ellipse fill="none" stroke="black" cx="350.939" cy="-195.351" rx="4.00002" ry="4.00002"/>
<polygon fill="black" stroke="black" points="428.754,-134.043 439.393,-131.389 432.681,-130.948 436.608,-127.854 436.608,-127.854 436.608,-127.854 432.681,-130.948 433.824,-124.319 428.754,-134.043 428.754,-134.043"/>
</g>
<!-- Category -->
<g id="node3" class="node"><title>Category</title>
<ellipse fill="none" stroke="black" cx="458" cy="-215" rx="56.0679" ry="18.3848"/>
<text text-anchor="middle" x="458" y="-211.4" font-family="Times Roman,serif" font-size="14.00">Category</text>
</g>
<!-- Category&#45;&gt;Product -->
<g id="edge6" class="edge"><title>Category&#45;&gt;Product</title>
<path fill="none" stroke="black" d="M458,-187.926C458,-173.224 458,-155.041 458,-140.044"/>
<ellipse fill="none" stroke="black" cx="458" cy="-192.407" rx="4" ry="4"/>
<polygon fill="black" stroke="black" points="458,-139.783 462.5,-129.783 458,-134.783 458,-129.783 458,-129.783 458,-129.783 458,-134.783 453.5,-129.783 458,-139.783 458,-139.783"/>
</g>
<!-- AdminUser -->
<g id="node4" class="node"><title>AdminUser</title>
<ellipse fill="none" stroke="black" cx="564" cy="-19" rx="65.0538" ry="18.3848"/>
<text text-anchor="middle" x="564" y="-15.4" font-family="Times Roman,serif" font-size="14.00">AdminUser</text>
</g>
<!-- AdminUser&#45;&gt;Product -->
<g id="edge8" class="edge"><title>AdminUser&#45;&gt;Product</title>
<path fill="none" stroke="black" d="M512.412,-37.5288C502.888,-42.5224 493.573,-48.636 486,-56 478.222,-63.5632 472.217,-73.7472 467.799,-83.2959"/>
<polygon fill="black" stroke="black" points="512.564,-37.4547 523.525,-37.1267 517.06,-35.2674 521.557,-33.0801 521.557,-33.0801 521.557,-33.0801 517.06,-35.2674 519.588,-29.0335 512.564,-37.4547 512.564,-37.4547"/>
<polygon fill="black" stroke="black" points="467.796,-83.3014 459.758,-90.7599 465.849,-87.9068 463.902,-92.5122 463.902,-92.5122 463.902,-92.5122 465.849,-87.9068 468.047,-94.2644 467.796,-83.3014 467.796,-83.3014"/>
</g>
<!-- Supplier -->
<g id="node6" class="node"><title>Supplier</title>
<ellipse fill="none" stroke="black" cx="583" cy="-215" rx="51.1176" ry="18.3848"/>
<text text-anchor="middle" x="583" y="-211.4" font-family="Times Roman,serif" font-size="14.00">Supplier</text>
</g>
<!-- Supplier&#45;&gt;AdminUser -->
<g id="edge12" class="edge"><title>Supplier&#45;&gt;AdminUser</title>
<path fill="none" stroke="black" d="M580.199,-186.107C576.602,-149.002 570.396,-84.9848 566.8,-47.8845"/>
<polygon fill="black" stroke="black" points="580.213,-186.253 576.699,-196.641 580.696,-191.23 581.178,-196.207 581.178,-196.207 581.178,-196.207 580.696,-191.23 585.657,-195.772 580.213,-186.253 580.213,-186.253"/>
<polygon fill="black" stroke="black" points="566.781,-47.6897 570.295,-37.3022 566.299,-42.7131 565.816,-37.7364 565.816,-37.7364 565.816,-37.7364 566.299,-42.7131 561.337,-38.1706 566.781,-47.6897 566.781,-47.6897"/>
<text text-anchor="middle" x="598" y="-107.4" font-family="Times Roman,serif" font-size="14.00">editors</text>
</g>
<!-- Supplier&#45;&gt;Product -->
<g id="edge10" class="edge"><title>Supplier&#45;&gt;Product</title>
<path fill="none" stroke="black" d="M556.052,-192.579C535.431,-175.423 507.073,-151.829 486.158,-134.427"/>
<ellipse fill="none" stroke="black" cx="559.284" cy="-195.268" rx="4.00002" ry="4.00002"/>
<polygon fill="black" stroke="black" points="485.944,-134.25 481.135,-124.395 482.101,-131.052 478.257,-127.854 478.257,-127.854 478.257,-127.854 482.101,-131.052 475.379,-131.313 485.944,-134.25 485.944,-134.25"/>
</g>
<!-- Product&#45;&gt;AdminUser -->
<g id="edge18" class="edge"><title>Product&#45;&gt;AdminUser</title>
<path fill="none" stroke="black" d="M478.473,-85.21C486.798,-75.5063 496.842,-64.7205 507,-56 513.042,-50.8127 519.861,-45.7886 526.627,-41.2022"/>
<polygon fill="black" stroke="black" points="478.339,-85.3698 468.469,-90.1487 475.129,-89.2036 471.92,-93.0374 471.92,-93.0374 471.92,-93.0374 475.129,-89.2036 475.37,-95.9261 478.339,-85.3698 478.339,-85.3698"/>
<polygon fill="black" stroke="black" points="526.741,-41.1275 537.572,-39.4117 530.923,-38.3875 535.106,-35.6475 535.106,-35.6475 535.106,-35.6475 530.923,-38.3875 532.64,-31.8833 526.741,-41.1275 526.741,-41.1275"/>
<text text-anchor="middle" x="531" y="-61.4" font-family="Times Roman,serif" font-size="14.00">editors</text>
</g>
<!-- Product&#45;&gt;Track -->
<g id="edge14" class="edge"><title>Product&#45;&gt;Track</title>
<path fill="none" stroke="black" d="M430.212,-89.1493C411.798,-74.6703 387.719,-55.7359 369.218,-41.1884"/>
<ellipse fill="none" stroke="black" cx="433.396" cy="-91.6533" rx="4.00002" ry="4.00002"/>
<polygon fill="black" stroke="black" points="369.011,-41.026 363.932,-31.3074 365.081,-37.9354 361.15,-34.8448 361.15,-34.8448 361.15,-34.8448 365.081,-37.9354 358.369,-38.3822 369.011,-41.026 369.011,-41.026"/>
</g>
<!-- Cargo -->
<g id="node16" class="node"><title>Cargo</title>
<ellipse fill="none" stroke="black" cx="441" cy="-19" rx="39.8075" ry="18.3848"/>
<text text-anchor="middle" x="441" y="-15.4" font-family="Times Roman,serif" font-size="14.00">Cargo</text>
</g>
<!-- Product&#45;&gt;Cargo -->
<g id="edge16" class="edge"><title>Product&#45;&gt;Cargo</title>
<path fill="none" stroke="black" d="M453.093,-84.4467C450.97,-72.9577 448.481,-59.4851 446.314,-47.7598"/>
<ellipse fill="none" stroke="black" cx="453.833" cy="-88.449" rx="4.00001" ry="4.00001"/>
<polygon fill="black" stroke="black" points="446.252,-47.4234 448.86,-36.7722 445.344,-42.5066 444.435,-37.5899 444.435,-37.5899 444.435,-37.5899 445.344,-42.5066 440.01,-38.4076 446.252,-47.4234 446.252,-47.4234"/>
</g>
</g>
</svg>
